<?xml version="1.0" encoding="utf-8"?>
<!-- Generator: Adobe Illustrator 16.0.0, SVG Export Plug-In . SVG Version: 6.00 Build 0)  -->
<!DOCTYPE svg PUBLIC "-//W3C//DTD SVG 1.1//EN" "http://www.w3.org/Graphics/SVG/1.1/DTD/svg11.dtd">
<svg version="1.1" id="圖層_1" xmlns="http://www.w3.org/2000/svg" xmlns:xlink="http://www.w3.org/1999/xlink" x="0px" y="0px"
	 width="651.97px" height="538.58px" viewBox="0 0 651.97 538.58" enable-background="new 0 0 651.97 538.58" xml:space="preserve">
<rect id="背景" fill="#FBFBF0" width="651.97" height="538.58"/>
<g id="雲1" opacity="0.4">
	<path fill="#DEA567" d="M121.164,140.889c2.184,0.188,10.625,1.063,11.938,11.438c1.313,10.375-26.063,15.188-26.188,3
		c0-3.938,6.75-6.063,9.125-5.125c2.375,0.938,3.563,2.542,3.563,3.688c0,1.146-0.813,3.167-3.021,3.167s-2.708-1-2.708-1.854
		c0-0.854,0.771-0.958,1.313-0.958s0.979,0.208,1.146,0.646c0.167,0.438,0.479,0.688,0.771,0.688s1.563-0.896,0.25-2.146
		c-1-0.875-1.5-0.938-2.229-0.938c-0.729,0-3.167,0.667-3.167,2.833s2.625,4.625,6.292,4.625s6.011-3.22,5.979-5.656
		c-0.031-2.438-1.281-9.563-12.406-9.531c-6.688,0-10.469,6.25-10.406,9.906c0.031,0.625,0.188,2.125,0.595,2.813
		c0.405,0.688,0.405,1.063-3.017-0.266s-9.391-1.287-13.62,0.922c-1.349,0.734-1.271,0.797-2.489-0.5
		c-1.22-1.297-2.688-2.688-2.656-6.219s5.25-6.875,8.125-6.844c2.354,0.042,3.583-1.938,5.75-3.688s7.168-4.854,15.584-4.229
		c7.312,0.542,7.895,2.354,8.582,3.167C118.956,140.641,118.727,140.681,121.164,140.889z"/>
	<path fill="#DEA567" d="M116.727,164.295c1.313,0.018,1.875-0.188,0.875,1.25c-1,1.438-0.453,0.656-1.25,2.453
		c-0.646,1.391-1.083,0.703-1.771-0.172c-0.688-0.875-2.646-2.333-3.917-3.146c-1.271-0.813-2.438-0.269-6.021-5.519
		s0.542-10.708,4.417-11.875s8.25-1.208,10.958,1.542c1.646,1.686,2.771,3.561,2.688,5.311s-1.188,2.958-2.354,3.438
		c-1.166,0.479-0.125-0.375,0.313-1.063c0.438-0.688,0.604-1.646,0.583-2.396c-0.083-1.771-2.292-5.813-7.271-5.771
		c-4.979,0.042-8.859,4.167-8.734,6.87s1.734,5.839,6.297,7.693C116.103,164.764,114.435,164.264,116.727,164.295z"/>
	<path fill="#DEA567" d="M139.852,157.827c3.377,0,6.708,0.958,9.708,5.25c0.448,0.75,0.635,0.719,1.729,0.75
		c3.656,0.094,13.906,3.594,14,11.25c0.095,7.655-9.438,7.594-10.53,7.625c-1.094,0.03-1.375,0.188-1.688,0.875
		c-0.313,0.687-2.469,7.417-14.719,7.708c-6.667,0.167-14-3.375-15-3.958s-1.458-0.25-1.958,0.083s-9.708,5.25-19.583,4.833
		s-14.125-3.708-15.083-4.833c-0.656-0.833-0.594-0.865-1.75-0.771s-4.625,0.063-9.188-1c-4.563-1.063-10.875-2.531-11-11.156
		s9.354-10.822,13.563-10.655c1.583,0.083,1.708-0.333,2.5-1.042c0.792-0.71,6.25-4.563,13.604-4.354
		c7.333,0.364,10.188,3.063,11.854,5.146c0.917,1.344,1.26,1.188,2.417,1.813s6.75,2.844,6.781,8.594
		c0.03,5.75-7.948,9.928-15.406,9.678s-9.031-5.115-8.781-7.178c0.25-2.062,3.281-4.844,6.313-4.844
		c3.031,0,5.188,0.531,5.188,2.781s-3.938,1.129-4.469,0.627s-1.688-0.221-1.125,0.936c0.563,1.157,2.104,1.823,3.75,1.803
		c1.646-0.021,5.021-2.438,5.021-4.646s-0.333-6.875-8.458-7.5s-13,6.344-12.844,10.563c0.156,4.219,3.407,9.5,15.073,9.458
		s16.583-7.333,16.958-8.625s0.729-1.063,1.146-0.5c0.417,0.563,5.979,5.979,13.104,5.792c7.125-0.188,14.875-4.87,14.792-9.829
		s-4.917-8.167-9.875-8.167s-8.458,2.917-8.375,5.875s2.042,4.391,5.729,4.287c3.688-0.104,3.375-4.771,1.375-2.896
		s-4.542,0.938-2.813-0.979c1.313-1.417,2.687-1.417,3.604-1.417s5.854,1.167,5.938,4.583s-4.094,6.542-9.906,6.635
		c-5.812,0.093-14.094-2.656-14.063-8.875c0.03-6.219,4.76-7.552,6.322-7.885c1.563-0.333,5.803-2.24,6.803-3.115
		s1.967-1.063,2.64-1.281S137.289,157.827,139.852,157.827z"/>
	<path fill="#DEA567" d="M97.56,167.389c0.895,0.031,6.458,0.854,6.542,4.313c0,0.833,0,0.917-0.583,0.125s-2.541-2.306-5.708-1.944
		s-4.729,1.319-5.896,2.34c-1.167,1.021-3.625,4.104-1.358,7.963c1.391,2.328,2.066,3.35,0.358,2.392s-4.333-2.396-4.417-5.708
		C86.414,173.557,89.039,167.097,97.56,167.389z"/>
	<path fill="#DEA567" d="M170.883,203.139c5.125-0.031,10.344,4.75,14.25,4.625c4.844-0.125,6.313-2.656,9.844-2.656
		c1.766,0,1.516,0.97,1.516,1.313s-1.141,2.906-3.983,3.313c-2.844,0.407-6.406,1.625-6.345,3.22
		c0.063,1.594,1.531,3.594,5.438,3.405c4.563-0.188,7.875-4.625,13.125-4.438c5.25,0.187,4.844,2.438,11.031,2.375
		c6.187-0.063,6.75-1.219,8.25-1.156c1.016,0.078,1.391,0.359,1.608,0.625s0.734,0.75-0.328,0.781
		c-1.062,0.031-2.266,0.344-3.391,1.078c-1.125,0.733-2.359,2.165-9.234,0.747s-12.312,0.623-15.021,3.248
		s-6.917,4.896-12.667,4.833c-5.75-0.063-10.75-2.417-13.875-6.25s-8.292-5.417-15.5-3.292s-12.125,2.625-17.375,2.208
		c-5.25-0.418-13.708-3.043-17.625-7.417c-1.406-1.47-1.375-1.281-3.094-1.25c-1.72,0.03-7.281,0.063-11.531-2.438
		s-5.844-4.563-5.813-7.25c0.031-2.687,2.875-3.688,3.859-4.188s1.266-0.594,2.188-0.625c0.923-0.03,5.62-0.896,7.703-1.479
		s6.22-1.771,7.438-2.833s1.917-0.562,2.917,0.083s7.625,3.291,13.625,3.333s8.989-0.448,11.958-2.667s4.531-3.656,4.5-4.969
		c0-0.875,0.233-0.828,0.953-0.845c0.719-0.016,8.047,1.125,8.328,6.031c0.28,4.906-2.688,7.844-7.845,7.906
		c-5.155,0.062-3.03-0.688-8.78-0.906c-5-0.188-6.25,2.156-6.25,4.156s1.719,5.25,7.53,5.469c5.813,0.219,4.031,1.063,7.97,0.813
		c3.938-0.25,4.844-1.938,8.313-3.688C166.81,203.306,169.456,203.243,170.883,203.139z"/>
	<path fill="#DEA567" d="M83.706,188.369c1.146,0,1.458-0.146,2.375,0.896s7.989,4.188,12.928,4.469
		c1.719,0.125,2.344,0.22,1.655,0.656c-0.688,0.438-1.844,2.188-2.125,2.969c-0.28,0.781-0.313,0.688-1.438,0.938
		s-3.667,1.948-6.917,2.406s-4.563-0.625-4.938-1.021c-0.375-0.396-0.396-0.417-0.833-0.417c-0.437,0-0.729-0.104-1.396,0.729
		s-4,5.001-15.083,4.521c-11.083-0.479-13.833-4.657-15.146-5.844c-1.313-1.188-1.313-0.719-2.625-0.625
		c-1.312,0.094-12.75,2.031-14.188-7.469c-0.313-2.25,1.469-8,9.155-7.845c2.428,0.095,2.262-1.03,3.323-1.947
		c1.063-0.917,4.75-4.271,10.5-3.958c3.188,0.292,4.708,1.188,4.739,2.094s0.391,1.233,0.859,1.766
		c0.468,0.532,1.03,1.75,0.077,1.563c-0.952-0.188-4.155-0.797-7.322,2.016c-3.167,2.813-4.24,9.656,1.635,12.344
		c5.875,2.688,9.188,2.75,12.594,1.656s8.25-3.281,9.313-8.75c0.219-1.125,0.516-1.094,0.891-1.094S83.706,188.369,83.706,188.369z"
		/>
	<path fill="#DEA567" d="M65.664,183.889c1.313,0,1.642,0,2.328,0.609c0.688,0.608,4.88,3.204,9.463,3.412
		c1.146,0.042,2.021-0.188,0.625,1.708c-1.396,1.896-5.396,3.854-10.063,3.875c-4.667,0.02-6.458-1.563-6.458-3.625
		c0-2.063,2.667-2.938,4.188-2.918c1.521,0.021,1.938,0.479,1.938,1.418c0,0.938-1.75,1.957-1.771,2.417
		c-0.021,0.459,0.104,0.917,1.188,0.813c1.084-0.104,2.396-1.833,2.417-3.104c0.021-1.271-0.995-3.151-3.933-3.229
		c-2.937-0.078-5.858,1.813-5.9,4.396s2.667,5.833,8,5.792s7.167-1.375,8.167-1.938c1-0.563,1.375-0.313,0.094,0.719
		c-1.281,1.032-7.469,5.563-15.188,1.22c-7.72-4.345-3.021-9.47-1.073-10.438s3.323-1.016,4.025-1.016
		C64.415,183.999,65.664,183.889,65.664,183.889z"/>
</g>
<g id="雲3" opacity="0.4">
	<path fill="#DEA567" d="M256.488,48.276c0.455,0.937,0.469,1.047-0.281,1.547s-2.516,1.922-3.375,3.375
		c-0.858,1.453-0.405,0.016-0.688-1.297c-0.282-1.313-2.479-5.594-8.375-5.344c-5.896,0.25-9.25,3.563-9.219,6.75
		c0.03,3.187,2.313,5.469,5.344,5.5c3.031,0.03,5.719-3.188,3.078-3.142c-2.642,0.047-2.767-3.151-0.162-3.151
		s7.834,0.771,7.75,4.771c-0.082,4-5.479,5.854-8.938,5.896c-3.458,0.042-6.667-0.668-7.271-0.896
		c-0.604-0.229-1.396-0.416-2.271-0.396c-0.875,0.021-11.271-0.707-11.479-7.875c-0.209-7.167,6.791-7.271,7.957-7.469
		c1.168-0.196,2.042-0.196,3.125-1.446c1.084-1.25,4.771-3.917,11.303-3.823S254.957,45.12,256.488,48.276z"/>
	<path fill="#DEA567" d="M243.373,48.245c5.113-0.356,6.459,2.167,6.793,3.688c0.332,1.521-0.063,0.813-0.959,0.167
		c-0.896-0.646-3.813-1.646-6.563-1.292c-2.75,0.354-3.334,2.563-3.25,3.5c0.084,0.937,0.521,1.813,1.166,2.25
		s0.584,0.583-0.832,0.5c-1.418-0.083-3.459-0.979-3.5-3.625C236.187,50.787,239.187,48.537,243.373,48.245z"/>
	<path fill="#DEA567" d="M261.854,49.891c2.373-0.092,4.207,0.333,5.041,0.917s1.417,0.583,2.292,0.583s4.896-0.615,9.771,3.104
		s4.688,6.083,4.5,7.375c-0.188,1.292-2.333,4.292-3.458,4.875s-1.042,1.188-1.563,1.708c-0.521,0.521-9.542,7.354-19.042,1.729
		c-1.688-1-1.517-1.328-3.063,0.297s-4.406,4.453-10,4.203s-8.969-2.625-10.406-4.156c-1.437-1.531-4.438-4.5-8.719-4.344
		c-4.281,0.155-6.406,2.219-7,3.405c-0.594,1.188-1.188,1.656-2.125,2.188c-0.937,0.532-10.688,5.531-18.563,1.25
		s-7.781-6-11.406-6.281s-6.156,3.531-10.531,3.531s-5.531-1.344-8.188-5.125c-1.281-1.938-2.22-1.281-4.031-2.688
		c-1.813-1.407,0.813-1.53,2.469-1.5c1.656,0.031,3.688,0.313,6.313,2.845c2.625,2.53,4.094,2.563,5.469,2.563
		s2.844-1.188,4.188-2.5c1.345-1.312,4.25-3.344,6.095-3.375c1.125-0.021,0.983-0.119,1.078,1.823
		c0.094,1.941,1.922,4.448,4.464,5.635c2.542,1.188,8.083,4.375,13.354,2.854c5.271-1.521,8.271-2.375,8.229-7.958
		s-5.583-6.542-7.375-6.542s-6.417,0.792-6.417,3.875s5.104,5.337,5.458,3.002c0.083-0.668-1.021-0.377-1.083-1.377
		c-0.063-1,1.521-1.625,3.125-1.688c1.604-0.063,4.75,0.229,4.75,3.479c0,3.251-5.042,6.709-10.584,5.709s-12-3.418-12.25-7.543
		s2.042-5.875,3.208-6.125s1.875-1.083,2.333-1.708s4.708-4.75,10.75-4.667s7.625,1.229,8.604,1.688
		c1.354,0.745,1.433,0.76,1.275,1.823c-0.157,1.063-0.517,5.844,3.547,8.094c4.063,2.25,7.823,2.792,9.615,2.792
		c1.791,0,1.688,0.188,2.896,0.646s13.146,2.125,16.521-3.875c0.5-0.845,0.688-1.109,1.047-0.345
		c0.358,0.766,4.786,7.804,12.453,5.762c1.75-0.521,1.766-1.073,2.75-1.262c0.983-0.188,4.078-1.75,4.108-4.983
		c0.031-3.234-3.839-5.63-6.297-5.651c-2.458-0.021-6.167,2.167-6.188,4.583c-0.021,2.416,1.833,3.125,3.125,3.021
		c1.292-0.104,1.313-2.104,2.813-2.188s2.271,0.563,2.292,1.667c0.021,1.104-0.729,3.06-4.188,3.29
		c-3.459,0.229-9.751-1.811-9.667-7.519S259.687,49.975,261.854,49.891z"/>
	<path fill="#DEA567" d="M265.332,55.683c1.959,0.083,4.625,1.729,4.688,3.813c0.063,2.084-1,2.771-0.938,1.563
		c0.063-1.208-0.938-3.375-3.438-3.458s-2.854,1.979-3.813,1.979s-1.917-1.25,0-2.604C263.748,55.622,265.332,55.683,265.332,55.683
		z"/>
	<path fill="#DEA567" d="M279.177,71.37c3.058,0.169,9.844,0.969,10.155,5.469c0.313,4.5-3.375,6.406-5.438,7.5
		c-2.063,1.095-11.917,5.554-21.375,0.637c-1.896-0.979-2.292-0.979-4.084-0.708c-1.791,0.271-8.011,0.135-10.104-3.583
		c-2.094-3.719-0.292-4.292,1.25-4.563c2.188-0.417,6.021-1.813,7.041-3.292c1.021-1.479,2.043-0.875,2.73-0.354
		c0.687,0.521,3.417,1.313,5.583,1.479s2.25-0.104,1.833,1.063s-1.595,8.822,7.53,8.542c9.125-0.281,8.47-5.688,8.5-6.063
		c0.031-0.375-0.375-3.313-2.5-3.25c-2.125,0.063-1.655,1.563-1.625,2.094c0.031,0.531-0.344,2.22-3.25,2.188
		c-2.905-0.031-4.344-3.375-1.125-5.313C277.519,71.277,277.494,71.277,279.177,71.37z"/>
	<path fill="#DEA567" d="M270.177,73.776c0.902-0.261,1.063-0.125,0.375,1.594c-0.688,1.719,1.313,4.844,4.063,4.875
		s4.75-0.625,5.375-2.563c0.625-1.938,0.969-0.72,0.969-0.095s-0.688,4.47-6.188,4.5c-5.5,0.031-6.656-2.625-6.719-4.438
		C267.988,75.836,268.552,74.245,270.177,73.776z"/>
	<path fill="#DEA567" d="M244.062,76.016c2.045,0.057,1.875,0.333,1.834,1.417s0.625,1.792-1.834,2.083
		c-2.457,0.292-7.791,0.417-10.166-4s-5.791-6.625-8.416-6.542s-3.76,0.75-1.339-0.667s6.839-0.458,9.089,2.125
		S239.562,75.891,244.062,76.016z"/>
</g>
<g id="雲4" opacity="0.4">
	<path fill="#DEA567" d="M309.647,303.897c2.188-0.063,2.438,0.063,1.313,0.813s-8.063,5.47-2.469,11.845
		c5.594,6.375,18.938,6.719,19.03-1.906c-0.029-3.938-4.437-4.969-6.843-4.969s-4.719,1.625-4.625,3.28
		c0.094,1.656,0.438,3.095,3.719,3.031c3.281-0.063,2.313-2,1.406-2s-0.938,0.656-1.844,0.625s-1.563-0.656-1.531-1.313
		c0.032-0.657,0.813-1.97,3.063-1.97s4.813,1.22,4.875,3.281c0.062,2.063-1.438,5.188-6.47,5.094
		c-5.03-0.094-11.219-3.188-11.188-8.313s8.656-7.219,13.469-7.063c4.813,0.156,11.439,2.281,13.625,3.438
		c1.281,0.719,1.078,0.656,2.484,0.75s7.578,0.063,7.859,6.688s-6.906,9-10.094,10.031s-9.657,1.75-12.782,0.469
		c-1.688-0.5-1.672-0.469-2.891,0.547c-1.219,1.017-4.703,3.484-10.266,3.548c-5.563,0.063-9.875-2.031-10.72-2.5
		c-0.844-0.47-1-0.438-0.438-1.406c0.562-0.968,2.555-3.73-0.332-9.053c-1.012-1.791-1.207-1.729,0-1.916
		c1.207-0.188,9.082-1.72,8.863-9.813c-0.072-1.364-0.072-1.205,0.928-1.231C308.792,303.856,309.647,303.897,309.647,303.897z"/>
	<path fill="#DEA567" d="M280.522,286.21c5.92,1.93,8.813,5.313,9.688,7.063s0.938,1.688,2.188,1.688s9.065,0.084,11.979,6.749
		c2.914,6.667-2.209,10.375-6.334,11.25c-2.541,0.5-2.917,0.126-4.5-1.166s-5.249-2.375-8.166-2.375
		c-1.334,0.083-1.25-0.083-0.917-1.125s-0.042-1.792,1.083-2.834c1.125-1.041,2.459-4.25,0.042-7.082
		c-2.417-2.833-7.781-4.698-11.75-3.042c-3.969,1.655-5.625,3.813-5.563,6.844c0.063,3.03,2.188,5.438,5.095,5.375
		c2.905-0.063,4.094-2.125,4.094-3s-0.969-1.095-1.469-0.845s-3.063,1.25-3.031-1.188c0.031-1.906,1.094-2.438,2.813-2.469
		c1.72-0.031,3.313,0.313,5.095,1.405c1.78,1.094,2.405,2.188,2.405,4.188s-2.594,5.375-8.655,5.625
		c-6.063,0.25-7.625-0.344-8.813-1.094s-1.532-0.656-2.532-0.625c-1,0.03-10.812-0.428-11.271-8.22
		c-0.458-7.79,5.834-11.457,11.292-10.874c1.625,0.167,2.416-0.499,2.916-1.207C266.71,288.544,272.085,283.46,280.522,286.21z"/>
	<path fill="#DEA567" d="M278.605,296.419c3.188,0.384,6.897,3.624,6.563,5.957s-0.5,0.875-1.042,0s-2.208-3.166-5.875-3.749
		s-6.583,0.083-6.875,2.499c-0.146,1.188-0.083,3.021,1.667,3.792c1.75,0.771,0.25,0.771-0.375,0.666
		c-0.625-0.104-2.604-0.791-2.625-3.291c-0.021-2.5,1.021-3.624,2.479-4.563C273.98,296.793,275.667,296.065,278.605,296.419z"/>
	<path fill="#DEA567" d="M284.867,311.084c2.591,0.129,9.512,1.25,12.053,7.459c1.083,2.666,1.833,5.666-2.354,8.707
		c-1.854,1.429-2.729,1.002-3.708,1.064c-0.979,0.062-1.146,0.166-2.521,1.375c-1.375,1.207-5.813,4.957-15.126,3.238
		c-5.031-0.813-7.313-1.636-7.563-2.24s-0.916-0.916-1.521-0.938c-0.604-0.02-0.625-0.27-1.292-1.082
		c-0.667-0.812-1.479-2.5-1.458-4.75c0.021-2.25,2.062-5.542,6.791-5.271c4.729,0.271,7.947,1.844,7.964,3.891
		c0.016,2.047-1.688,2.422-2.797,2.359c-1.109-0.063-1.203-2.563-2.688-1.25c-1.484,1.313-1.703,3.031-0.141,4.219
		c1.562,1.188,5.161,2.092,7.766-0.451c2.604-2.541,5.313-6.799,0.469-10.924c-2.697-2.113-9.447-2.135-13.072-0.801
		c-1.255,0.52-1.192,0.613-1.067-0.402c0.125-1.015-0.547-2.344-0.983-3.031c-0.438-0.687-0.345-1.327,1.188-0.797
		c1.532,0.531,3.328,1.656,7.984,1.781c4.655,0.125,5.844-0.813,7.078-1.391C281.1,311.271,283.698,311.027,284.867,311.084z"/>
	<path fill="#DEA567" d="M272.001,316.315c2.75-0.021,7.43,1.041,7.568,4.938c0.141,3.896-3.234,6.771-6.007,6.687
		c-0.886-0.041-1.495-0.275-1.792-0.588c-0.297-0.313-0.328-0.813,0.188-0.625c0.516,0.188,0.641,0.28,1.453,0.297
		c0.812,0.016,4.522-0.896,4.381-5.041c-0.167-3.25-6.563-4.854-9.417-4.604c-1.688,0.104-2.059-0.137-0.339-0.637
		C269.756,316.241,272.001,316.315,272.001,316.315z"/>
	<path fill="#DEA567" d="M242.335,297.669c2.268-0.648,5.25-1.208,6.875-0.75s1.375,0.625,1.125,1.916s-0.531,4.874,2.063,7.938
		c1.095,1.375,1.22,1.406,0,1.719c-1.219,0.313-5.219,2.031-5.03,5.5c0.188,3.469,3.26,4.906,5.78,4.803
		c2.521-0.103,3.438-1.688,3.104-2.396c-0.333-0.707-1.25-0.646-2.167-0.082c-0.917,0.563-2.417-0.667-2.333-2.125
		c0.083-1.459,1.313-2.479,3.125-2.375c1.813,0.104,6.083,1.791,6.167,4.5c0.084,2.707-4.927,6.363-9.489,6.457
		c-4.562,0.094-8.094-1.656-9.219-2.313c-1.125-0.656-1.719-0.813-2.75-0.75c-1.031,0.063-6.063-0.905-8.219-3.03
		c-2.156-2.125-5.688-5.375-0.22-9.72c2.845-1.969,4.253-2.344,4.565-3.688C236.025,301.929,237.376,299.085,242.335,297.669z"/>
	<path fill="#DEA567" d="M260.647,311.959c0.592,0.854,0.595,1.595-0.405,0.595s-1.938-1.781-3.375-2
		c-1.438-0.22-7.25-0.156-7.063,2.969c0.073,1.459,0.969,2.771,2.031,3.417c1.062,0.646-0.042,0.563-0.854,0.167
		c-0.812-0.396-2.625-1.698-1.979-3.934c0.646-2.234,1.792-2.963,3.5-3.191c1.708-0.229,3.125-0.458,3.792-0.563
		c0.667-0.104,1.75,0.041,2.5,0.708S260.272,311.418,260.647,311.959z"/>
	<path fill="#DEA567" d="M258.085,322.418c2.021-1.504,2.334-1.875,1.709,1.5s1.584,5.666,2.25,6.25c0.666,0.582,0.834,0.625,0,1.25
		s-5.334,3.24-9.834,1.953s-6.333-6.078-13.125-6.203s-4.25,5.131-17.625,6.556c-13.375,1.424-11-4.451-23.75-7.015
		c-7.292-1.291-6.208,4.459-12.042,4.666c-5.833,0.209-2.458-1.582-8.458-2.5c-2-0.375-1.417-1.666,0-2.249s1.896-0.521,4.042,0.876
		c2.146,1.396,3.604,1.396,4.521,1.396s2.313,0.188,4.646-1.979s3.916-3.958,7.208-3.916c3.292,0.041,6.552,1.396,10.49,4.427
		c3.938,3.03,8.655,3.375,9.844,3.344c1.188-0.031,9.219-0.469,9.438-5.531c0.22-5.062-6.905-2.156-6.844-6.094
		c0.063-3.938,4.688-4.313,5.531-4.438s0.969-0.25,1.656,0.781c0.687,1.031,4.53,5,10.28,5.719c2.125,0.281,2.125,0.23,4.083,1.271
		S252.678,326.44,258.085,322.418z"/>
	<path fill="#DEA567" d="M310.272,331.522c1.875,0,2-0.063,2,1.563s-0.75,9-8.938,9.688c-4.281,0.375-5.75-0.25-8.156,1.594
		s-1.875,4.5-1.688,5.344c0.187,0.845,1.875,6.188-5.75,9.22c-4,1.563-5.75,1.25-6.781,1.28c-1.031,0.031-1.438,0.125-2.25,0.563
		c-0.813,0.438-4.75,3.219-11.5,2.406c-6.75-0.813-9.406-3.22-13.906-5.063s-8.156,0.969-12.438,2.25
		c-4.282,1.281-9.75,1.688-12.22-0.813c-2.469-2.501-0.021-2.802,1.979-2.511s5.167,2.125,8.5,1.709
		c4.708-0.604,4.115-4.948,11.74-4.698s8.313,1.5,10.375,2.125c2.062,0.625,12.313,3.155,16.53-1.156
		c4.219-4.313,3.25-7.719-0.405-9.469c-3.656-1.75-5.22-1.031-13.22-0.375c-5.969,0.313-9.25-2.656-10.938-4.281
		c-1.688-1.625-0.688-3.656,0-4.5c0.688-0.844,1.406-1,2.406-1c1.969,0,6.03-1.281,7.344-2.344c1.063-0.781,1.719-0.781,2.813-0.22
		c1.095,0.563,6.188,2.709,12.688,2.293c6.5-0.418,10.791-3.459,11.458-4.293c0.667-0.832,1.563-0.688,2.271-0.688
		s2.771-0.75,3.438-1.334c0.667-0.582,1.146-0.604,2.334,0C299.148,329.418,304.053,331.522,310.272,331.522z"/>
</g>
<g id="雲6" opacity="0.4">
	<path fill="#DEA567" d="M91.396,380.994c2.937,0.078,10.75,2,15.406,6c2.03,2,2.03,1.75,4.344,2.281
		c2.313,0.53,8,3.821,7.833,7.655s-2.375,6.084-8.708,8.5s-8.156,6.845-8.063,8.313s0.345,1.563-1.438,2.375
		c-1.782,0.812-8.281,3.281-14.375,0.188c-1.563-0.75-1.406-0.844-1.375-2.28c0.063-0.75,0.087-1.563-0.02-2.345
		c-0.105-0.78-0.262-1.188,0.988-1.188s5.344-0.219,8.031-1.594c2.687-1.375,5.5-4.406,6.969-7.688s-0.552-10.613-9.094-11.26
		c-8.542-0.647-11.281,3.604-11.72,5.447c-0.438,1.843-0.052,4.428,2.24,5.719c2.292,1.293,3.938,2.125,6.104,2.188
		c2.166,0.063,4.688-1.646,3.208-3.563c-1.1-1.5-1.74-1.469-2.083-1.172s-0.5,0.625-0.125,1.063
		c0.375,0.438,0.733,0.484,0.733,0.922c0,0.438-0.078,0.97-1.5,0.953c-1.422-0.016-2.733-0.219-3.391-1.094
		s-1.984-5.828,4.953-5.859c6.108-0.03,8.047,4,8.047,5.595c0,1.594-0.761,7.303-10.302,8.405c-3.604,0.313-3.396,0.188-4.75-1.207
		c-1.354-1.396-5.25-6.002-16.792-5.543c-1.708,0.104-2,0.229-2.833-1.084c-0.833-1.313-4.833-9.832,8.458-13.25
		c1.917-0.457,2.5-0.75,3.458-1.666S80.708,380.712,91.396,380.994z"/>
	<path fill="#DEA567" d="M90.864,391.431c3.094,0,3.844,0.5,5.5,1.281s2.344,1.688,3.125,2.938s1.031,3.78,0.375,2.094
		c-0.656-1.688-1.438-2.219-2.625-3.063c-1.187-0.844-3.594-1.75-5.281-1.875c-1.687-0.125-5.063,0.156-6.813,1.625
		c-1.75,1.47-2.095,1.875-2.125,3.031c-0.031,1.156-0.22,2.219-0.845,0.625s-0.344-3.281,1.595-4.625
		C85.708,392.118,88.708,391.431,90.864,391.431z"/>
	<path fill="#DEA567" d="M118.146,405.994c3,0.008,6.458,1.104,7.75,1.896s1.75,0.832,3.042,0.916s10.125,0.293,10.708,8.459
		s-7.458,9.377-10.75,9.461c-1.792,0-2,0.214-2.958,1.423s-5.833,6.366-16.917,6.282s-15.083-3.041-16.042-3.832
		c-0.958-0.793-1.083-0.877-2.5-1.168s-8.333-1.082-10.458-6.832c-0.458-1.625-0.417-1.418,0.333-1.959
		c0.417-0.291,2.979-2.239,3.292-2.989c0.313-0.75,1.313-0.281,1.906,0.03c0.593,0.313,3.594,1.813,8.938,1.938
		c2.813,0.063,3.75-0.313,4.25-0.563s0.719-0.75,1.5,0.72c0.781,1.469,4.073,6.446,12.573,6.196s11.792-6.375,11.75-9
		s-1.625-5.125-6.833-5.125s-4.25,4.418-2.083,4.418c0.375,0.011,0.5-0.146,0.5-0.459c0-0.313-0.469-0.219-0.438-1.219
		c0.031-1,0.72-1.125,1.595-1.125s3.25,0.531,3.188,3.125c-0.062,2.594-3.531,4.344-7.531,4.219s-8.594-2.313-8.719-6.094
		S109.312,405.974,118.146,405.994z"/>
	<path fill="#DEA567" d="M102.229,417.474c0.206-0.172,0.625-0.252,1.417,0.707s2.542,4.043,9.25,4.168s9.25-4.418,9.25-5.512
		s-0.219-1.469-0.406-1.75c-0.187-0.281-0.25-1.313,0.563-0.344c0.375,0.531,0.594,1.281,0.594,2.031
		c0.063,1.625-2.229,7.393-10.094,7.469C104.938,424.319,100.219,419.14,102.229,417.474z"/>
	<path fill="#DEA567" d="M69.708,403.494c5.25,0.067,13.625,2.75,13.688,8.875c0.063,6.125-5.438,8-10.375,8.125
		c-4.938,0.125-7.313-2.375-7.125-5.063c0.188-2.688,2.688-3.432,4.313-3.436c1.625-0.002,2.25,0.623,2.281,1.404
		c0.031,0.78-0.5,1.438-1.156,1.5c-0.655,0.062-1.03,0.344-1,0.78c0.031,0.438,0.095,1.063,1.345,1
		c1.25-0.063,5.75-1.03,5.563-5.063c-0.156-2.281-3.781-5.219-7.688-5.156c-3.907,0.063-10.239,4.055-10.073,9.43
		s5.75,10.205,12.208,9.914c3.427-0.125,5.521-0.875,6.052-1.094s0.781-0.531,1.688,0.563c0.906,1.094,3.25,3.375,4.25,3.78
		c1,0.406,0.75,0.5,0,0.938c-0.75,0.438-5.594,2.771-11.771,2.438s-11.163-2.719-12.431-3.875c-1.269-1.155-1.019-1.25-2.705-1.469
		c-1.688-0.219-14.875-1.969-14.875-9.656c0-7.687,9.583-8.541,12.5-8.541c1.25,0.041,1.334-0.084,1.917-0.793
		C56.896,407.39,61.281,403.386,69.708,403.494z"/>
	<path fill="#DEA567" d="M70.302,408.244c2.53-0.021,5.219,2,5.28,3.563c0.063,1.563-1.25,3.22-1.375,1.5
		c-0.125-1.719-2.219-2.905-4.344-2.905s-5.844,1.469-5.719,5.219s4.155,6.75,10.219,6.656c2.031-0.031,3.188-1.156,3.625-0.313
		c0.188,0.5-1.031,2.219-5.969,2.156c-4.938-0.063-10.781-2.654-10.875-7.937C61.052,410.9,66.802,408.275,70.302,408.244z"/>
	<path fill="#DEA567" d="M69.576,434.181c0.992,0.177,1.257,0,0.695,1.25c-0.563,1.25-1.063,2.563-1,3.875
		c0.063,1.313,1.5,3.5,2.375,3.938c0.875,0.438,1.188,0.813,0.875,1.938c-0.313,1.125-4.125,8.125-18.313,8.313
		c-12.688,0-15.938-3.938-17.25-4.813c-1.312-0.875-1.688-1.125-3.125-1.125c-1.437,0-15.312-0.438-15.25-10.563
		c0.188-7.25,7.313-7.938,8.688-7.938s1.625,0.063,2.375-1c2.25-3.938,9.813-4.125,11.188-4.25s2,0.375,3,1.125
		c3.875,2.75,10.438,3.875,11.813,3.938c1.375,0.063,1.75,0.188,2.688,0.938c0.938,0.75,3.94,2.314,4.783,2.658
		c0.842,0.342,2.03,2.029,1.967,3.654c-0.063,1.625-1.188,6.125-8.438,5.75s-7.344-3.531-7.344-4.188
		c0-0.656,0.813-2.375,3.25-2.219c2.437,0.156,2.469,1.094,2.655,1.594c0.188,0.5,0.563,0.531,1,0.406
		c0.438-0.125,0.625-0.469,0.438-1.031c-0.188-0.562-1.438-2.594-4-2.594c-2.563,0-3.188,0.531-4.5,1.406
		c-1.313,0.875-3.063,1.875-2.969,4.406c0.094,2.53,3.313,7.25,11.063,6.905c5.75-0.219,7-3.28,7.281-3.969
		c0.281-0.688,0.281-0.844,0.844-1.281c0.563-0.437,2.344-2.375,2.344-4.25c0-0.938-0.063-2.188-0.25-2.655
		C66.273,433.931,65.943,433.541,69.576,434.181z"/>
	<path fill="#DEA567" d="M51.291,442.472c1.121,0.49,4.479,1.189,8.271,0.543c1.354-0.063,2.042-0.104,0.938,0.563
		c-1.104,0.667-2.667,1.332-4.604,1.395c-1.938,0.063-6.292-0.916-7.979-3.082c-1.688-2.168-1.062-2.875-0.854-3.25
		s0.396-0.668,0.854,0.646C48.375,440.599,50.146,441.972,51.291,442.472z"/>
	<path fill="#DEA567" d="M166.229,441.806c4.833-0.043,22.979,1.938,22.979,16.375c-0.104,7.5-8.813,7.877-10.938,7.834
		c-2.125-0.041-9.542-1-9.375-5.541c0.167-4.543,4.333-4.875,5.708-4.875s5.667,0,5.667,2.166s-1.521,2.418-2.553,2.5
		c-1.031,0.084-1.677-0.063-2.197-0.666c-0.521-0.603-1.021-0.896-1.396-0.646s-0.667,0.604-0.104,1.209
		c0.563,0.604,1.739,1.77,3.697,1.754s4.35-1.828,4.317-3.719c-0.078-3.599-4.349-4.283-6.995-4.285
		c-2.646,0-7.427,0.379-7.787,5.113c-0.938-1.359-5.15-6.72-14.108-6.761c-3.604,0.146-3.813,0.666-5.917,0.396
		c-2.104-0.271-9.771,1.313-9.771,7.229s7.281,8.761,10.906,8.636s4.906-1.938,5.188-2.953c0.282-1.016,0.345-1.156,0.673-1.703
		c0.155-0.281,0.327-0.828,0.327-1.672c0-0.845-1.28-2.938-3.172-2.984c-0.969-0.016-1.172,0.203-1.188,0.625
		c-0.017,0.422-0.078,0.953,0.922,1.031s1.797,0.781,1.813,1.313c0.017,0.532-0.858,2.267-3.75,2.142
		c-2.891-0.125-4.969-1.869-5.052-4.035s1.959-6.479,9.354-6.209s12.771,4.5,12.917,8.146c0.146,3.646-5.083,12.041-20.167,12
		c-5.417,0-12.917-1.834-14.875-2.834s-2.5-1.291-3.208-2.082c-0.708-0.793-1.083-1.063-2.292-0.543
		c-1.208,0.521-2.303,0.572-4.208,0.604c-1.906,0.032-7.47-1.906-7.531-5.906s4.438-6.188,5.344-6.625
		c0.906-0.437,1.188-0.5,2.531-0.219s3.313,0.375,3.906,0.094s0.875-0.375,1.655-0.313c0.781,0.062,5.906-0.25,5.813-5.031
		s-5.906-5.719-7.125-5.688c-1.219,0.031-2.073,0.23-2.698,0.5c-0.625,0.271-1.459,0.084-2.104,0.043
		c-0.646-0.043-1.021-0.084-3.021,0.521s-15.354,2.771-19.229,2.688c-3.875-0.082-9.198-1.155-9.917-4.75
		c-0.22-1.25-0.595-2.25-2.563-1.03c-1.969,1.219-5.688,2.989-10.375,1.219c-0.719-0.203-1.047-0.267-1.078-1
		c0-0.188-0.125-0.609-0.453-0.906c-0.327-0.297-0.608-0.422-0.952-0.438c-0.345-0.017-0.437,0.063-1.21-0.47
		c-0.774-0.531-1.588-1.612-1.649-3.416c-0.063-1.803,1.063-3.146,1.375-3.646c0.312-0.5,0.719-0.656,2.219-0.719
		c1.5-0.063,8.031-0.75,10.813-2.845c0.594-0.5,0.969-1,2.28-0.75c1.313,0.25,3.281,0.22,4.531,1.5
		c1.25,1.281,8.813,4.75,18.844,3.97c10.031-0.781,14.428-4.595,15.595-6.179c1.167-1.582,1.736-1.375,3.452-1.541
		c1.715-0.166,3.674-0.541,4.507-0.916s1.125-0.625,1.667,0s1.167,2.207-1.875,3.082s-8.833,3.043-8.458,6.959
		s3.459,6.709,8.313,6.584c4.854-0.125,7.188-2.418,12.313-2.293c3.125,0.043,6.438,0.793,7.5,1.418
		c1.062,0.625,1.729,0.646,3.771-0.168C159.876,442.286,162.75,441.837,166.229,441.806z"/>
	<path fill="#DEA567" d="M127.521,437.587c0-1.219,0.719-2.438,3.156-3.875c-0.22,0.688-0.438,1.281-0.438,1.656
		s-0.125,5.75,7.219,6.594c-2.219,0.25-5.28,1.25-7.75-0.563C127.239,439.586,127.521,437.587,127.521,437.587z"/>
	<path fill="#DEA567" d="M128.614,454.337c-0.906-0.033-1.781-0.094-2.219-0.375c0.375-0.438,1.719-2.719,1.78-3.906
		c0.063-1.187-0.625-2.155-0.875-2.563c0.47,0,1.313,0.063,2.22,1c0.905,0.937,1.719,2.813,1.719,4
		C131.239,453.68,129.642,454.375,128.614,454.337z"/>
	<path fill="#DEA567" d="M125.833,451.681c0.066-1.153-0.78-4.094-3.28-4.5c0.28,1.063,0.344,1.406,0.28,2.625
		c-0.063,1.22-0.313,3-1.688,4.281s0.844,1.094,1.655,1.125C123.613,455.243,125.677,454.4,125.833,451.681z"/>
	<path fill="#DEA567" d="M195.229,457.181c3.249-0.078,12.083,0.625,12.167,7.918c0.083,7.291-6.458,10.746-17.958,10.746
		c-4.104-0.102-7.229-0.789-8.354-1.352c-1.125-0.563-2-0.541-2.813-0.271c-0.813,0.271-8.25,1.791-12.833-3.875
		c-0.75-0.791-0.25-1.168,0.292-1.75c0.542-0.584,2.042-2.584,2.125-4.75c1,1.041,4.5,3.957,11.417,3.875
		c2.729-0.041,4.708-0.709,4.938-0.813c0.354,0.375,2.604,3.854,9.125,3.938c4.875-0.012,7.095-4.012,7-6.168
		c-0.094-2.155-2.155-4.594-4.313-4.594s-3.313,1.438-3.219,2.375c0.094,0.938,0.844,1.875,2.313,1.906
		c0.75,0.031,0.938-0.031,0.938,0.469s-0.406,1.531-2.97,1.5c-2.563-0.031-3.719-1.375-4.188-1.938
		c0.375-0.656,1.063-1.438,1.531-2.938c0.468-1.5,0.563-2.75,0.375-3.656C191.521,457.587,192.656,457.244,195.229,457.181z"/>
	<path fill="#DEA567" d="M192.989,467.994c1.189-0.021,4.438-0.563,4.938-2.125c0.5-1.563-0.156-1.938-0.75-2.438
		c-0.595-0.5-0.97-0.563-1.22-0.469s-1.729,0.375-0.411-0.563c1.318-0.938,3.317,0.688,3.381,2c0.063,1.312-0.156,4.905-6.563,4.875
		c-2.5-0.095-5.094-1.406-5.969-2.25c-0.875-0.845-0.688-0.688,0-1.063c0.688-0.375,0.969-0.781,1.719,0
		S189.614,468.056,192.989,467.994z"/>
	<path fill="#DEA567" d="M176.396,476.494c2.188,0.016,5.688-1.875,5.563,1.313c-0.125,3.188-5,5.75-9.125,5.75
		s-4.75-0.5-5.563-0.938c-0.813-0.438-2-0.25-2.813,0.063c-0.813,0.313-4.438,1.25-7.813,0.438
		c-3.375-0.813-5.125-1.875-10.188-1.688c-5.063,0.188-4.375-0.75-7.75-0.75s-6.938,1.688-7,4.813
		c-0.062,3.125,2.104,5.227,5.021,5.561c2.917,0.332,3.166,0.748,5.708,0.832s7.125-1.834,10.833-1.75
		c11.5,0.67,11.167,5.42,17.667,5.629s9.75-3.5,15.917-3.625c1.072-0.053,1.833-0.02,2.625,0.188
		c-1.479,0.813-2.792,1.271-3.958,2.104c-1.167,0.834-8.083,6.541-15.292,6.459c-7.208-0.084-5.125-4.707-15.208-5.041
		s-13.753,5.146-23.314,3.957c-9.561-1.188-11.061-6.5-11.436-7.813c-0.375-1.313-1-1.313-2.188-1.375
		c-1.188-0.063-12-1-11.75-7.938c0.25-6.938,10.75-9.875,13.625-9.813c2.875,0.062,2.563-0.25,3.5-0.813
		c0.938-0.563,2.063-2.063,4.688-0.313s9.375,4.014,17.5,4.102c8.125,0.086,15.458-2.748,16.75-4.08
		c1.292-1.334,1.375-0.709,2.125,0S167.896,476.431,176.396,476.494z"/>
	<path fill="#DEA567" d="M142.312,460.099c0.076,1.998,1.833,5.5,7.125,5.75c1.208,0.082,2.125,0.582-0.25,0.832
		s-10-1.291-9.917-5.875c0.083-4.582,3.813-5.834,5.698-6C143.771,456.056,142.229,457.89,142.312,460.099z"/>
	<path fill="#DEA567" d="M133.562,485.556c0.188-1.748,2.125-3.084,5.25-3.166c-1.542,1.666-3.625,3.084-1.542,6.666
		C136.021,489.056,133.171,489.188,133.562,485.556z"/>
	<path fill="#DEA567" d="M138.187,486.724c0.017-2.049,1.667-3.459,3.917-3.584c-1.375,3.5-1.625,4.168,0.667,6.834
		C141.271,490.224,138.156,490.441,138.187,486.724z"/>
</g>
<g id="雲1_1_" opacity="0.4">
	<path fill="#DEA567" d="M433.929,411.57c2.184,0.187,10.625,1.063,11.939,11.438c1.313,10.375-26.064,15.188-26.189,3
		c0-3.938,6.75-6.063,9.125-5.125c2.375,0.938,3.563,2.541,3.563,3.688c0,1.146-0.811,3.166-3.02,3.166s-2.709-1-2.709-1.854
		c0-0.854,0.77-0.959,1.313-0.959c0.541,0,0.98,0.209,1.146,0.646c0.166,0.437,0.479,0.688,0.77,0.688
		c0.293,0,1.564-0.896,0.25-2.146c-1-0.875-1.5-0.938-2.229-0.938s-3.166,0.668-3.166,2.834s2.625,4.625,6.291,4.625
		c3.668,0,6.012-3.219,5.979-5.655c-0.031-2.438-1.279-9.563-12.404-9.531c-6.689,0-10.471,6.25-10.406,9.906
		c0.031,0.625,0.188,2.125,0.594,2.813s0.406,1.063-3.016-0.266c-3.422-1.329-9.393-1.287-13.621,0.922
		c-1.348,0.733-1.271,0.797-2.488-0.5c-1.219-1.297-2.688-2.688-2.656-6.219c0.031-3.531,5.25-6.875,8.125-6.845
		c2.354,0.042,3.582-1.938,5.75-3.688c2.166-1.75,7.168-4.854,15.584-4.229c7.313,0.541,7.896,2.354,8.582,3.166
		C431.722,411.319,431.491,411.361,433.929,411.57z"/>
	<path fill="#DEA567" d="M429.491,434.977c1.313,0.018,1.875-0.188,0.875,1.25c-1,1.438-0.453,0.655-1.25,2.452
		c-0.646,1.392-1.084,0.703-1.771-0.172s-2.646-2.333-3.916-3.146c-1.271-0.813-2.439-0.27-6.021-5.52
		c-3.584-5.25,0.541-10.709,4.416-11.875c3.875-1.167,8.25-1.209,10.959,1.541c1.646,1.687,2.77,3.562,2.688,5.312
		c-0.084,1.75-1.188,2.958-2.354,3.438c-1.166,0.48-0.125-0.375,0.313-1.063c0.438-0.688,0.604-1.646,0.584-2.396
		c-0.084-1.771-2.291-5.813-7.271-5.771c-4.979,0.041-8.859,4.166-8.734,6.869c0.125,2.702,1.734,5.839,6.297,7.692
		C428.866,435.445,427.198,434.945,429.491,434.977z"/>
	<path fill="#DEA567" d="M452.616,428.507c3.379,0,6.709,0.959,9.709,5.25c0.445,0.75,0.635,0.72,1.729,0.75
		c3.656,0.095,13.906,3.595,14,11.25c0.094,7.656-9.438,7.595-10.531,7.625c-1.094,0.031-1.375,0.188-1.688,0.875
		c-0.314,0.688-2.469,7.417-14.719,7.709c-6.666,0.166-14-3.375-15-3.959s-1.459-0.25-1.959,0.084
		c-0.5,0.332-9.709,5.249-19.584,4.832c-9.875-0.416-14.125-3.707-15.082-4.832c-0.656-0.834-0.594-0.864-1.75-0.771
		s-4.625,0.063-9.188-1c-4.564-1.063-10.875-2.531-11-11.156s9.354-10.823,13.563-10.656c1.582,0.084,1.707-0.333,2.5-1.041
		c0.791-0.709,6.248-4.563,13.604-4.354c7.334,0.364,10.188,3.062,11.854,5.146c0.918,1.345,1.262,1.188,2.418,1.813
		s6.75,2.844,6.781,8.594s-7.949,9.928-15.406,9.678c-7.459-0.25-9.031-5.114-8.781-7.178c0.25-2.063,3.281-4.844,6.313-4.844
		c3.033,0,5.189,0.531,5.189,2.781s-3.939,1.129-4.471,0.627c-0.529-0.502-1.688-0.222-1.125,0.936
		c0.564,1.157,2.105,1.823,3.75,1.803c1.646-0.021,5.021-2.438,5.021-4.646s-0.332-6.875-8.457-7.5s-13,6.344-12.844,10.563
		c0.154,4.22,3.406,9.5,15.072,9.459c11.666-0.043,16.582-7.334,16.957-8.625c0.375-1.293,0.73-1.063,1.146-0.5
		c0.418,0.563,5.979,5.979,13.105,5.791c7.125-0.188,14.873-4.869,14.791-9.827c-0.084-4.96-4.918-8.167-9.875-8.167
		c-4.959,0-8.459,2.917-8.375,5.875s2.041,4.391,5.729,4.285c3.689-0.104,3.375-4.77,1.375-2.895s-4.541,0.937-2.813-0.98
		c1.313-1.416,2.688-1.416,3.604-1.416s5.855,1.167,5.939,4.584c0.082,3.416-4.096,6.541-9.906,6.636
		c-5.813,0.094-14.096-2.656-14.064-8.875c0.031-6.22,4.762-7.553,6.324-7.886c1.563-0.334,5.801-2.239,6.801-3.114
		s1.969-1.063,2.641-1.281C446.587,429.731,450.054,428.507,452.616,428.507z"/>
	<path fill="#DEA567" d="M410.323,438.07c0.896,0.031,6.459,0.854,6.543,4.313c0,0.834-0.002,0.916-0.584,0.125
		c-0.584-0.791-2.541-2.305-5.709-1.942c-3.166,0.359-4.729,1.317-5.895,2.34c-1.168,1.021-3.625,4.104-1.359,7.963
		c1.391,2.328,2.066,3.349,0.359,2.391c-1.709-0.958-4.334-2.396-4.418-5.708C399.179,444.237,401.804,437.778,410.323,438.07z"/>
	<path fill="#DEA567" d="M483.647,473.82c5.125-0.031,10.344,4.75,14.25,4.625c4.844-0.125,6.313-2.656,9.844-2.656
		c1.766,0,1.516,0.969,1.516,1.313c0,0.344-1.141,2.905-3.984,3.313c-2.842,0.407-6.404,1.625-6.344,3.219
		c0.063,1.595,1.531,3.595,5.439,3.406c4.563-0.188,7.875-4.625,13.125-4.438c5.25,0.187,4.844,2.438,11.029,2.375
		c6.188-0.063,6.75-1.22,8.25-1.156c1.018,0.078,1.393,0.358,1.609,0.625c0.219,0.266,0.734,0.75-0.328,0.781
		c-1.061,0.03-2.266,0.344-3.391,1.077c-1.125,0.734-2.359,2.165-9.234,0.746c-6.875-1.418-12.311,0.623-15.02,3.248
		s-6.918,4.896-12.668,4.834c-5.75-0.062-10.75-2.417-13.875-6.25s-8.291-5.416-15.5-3.291c-7.207,2.125-12.125,2.625-17.375,2.208
		s-13.709-3.042-17.625-7.417c-1.406-1.469-1.375-1.28-3.094-1.25c-1.719,0.031-7.281,0.063-11.531-2.438s-5.844-4.563-5.813-7.25
		c0.031-2.688,2.875-3.688,3.859-4.188c0.982-0.5,1.266-0.594,2.188-0.625c0.922-0.03,5.619-0.896,7.703-1.479
		c2.082-0.584,6.219-1.771,7.438-2.834c1.219-1.063,1.916-0.563,2.916,0.084c1.002,0.645,7.627,3.291,13.627,3.332
		c6,0.043,8.988-0.447,11.957-2.666s4.531-3.656,4.5-4.969c0-0.875,0.234-0.828,0.953-0.845c0.719-0.016,8.047,1.125,8.328,6.031
		s-2.688,7.844-7.844,7.906c-5.156,0.062-3.031-0.688-8.781-0.906c-5-0.188-6.25,2.156-6.25,4.156s1.719,5.25,7.531,5.469
		s4.031,1.063,7.967,0.813c3.938-0.25,4.846-1.938,8.314-3.688C479.575,473.986,482.222,473.923,483.647,473.82z"/>
	<path fill="#DEA567" d="M396.472,459.049c1.145,0,1.459-0.146,2.375,0.896s7.988,4.188,12.926,4.469
		c1.719,0.125,2.344,0.219,1.656,0.656c-0.688,0.437-1.844,2.188-2.125,2.969s-0.313,0.688-1.438,0.938s-3.668,1.946-6.918,2.405
		s-4.563-0.625-4.938-1.021s-0.396-0.416-0.832-0.416c-0.438,0-0.73-0.104-1.396,0.729c-0.668,0.834-4,5.002-15.084,4.521
		c-11.083-0.479-13.833-4.656-15.146-5.844c-1.314-1.188-1.314-0.72-2.625-0.625c-1.313,0.094-12.75,2.03-14.189-7.47
		c-0.313-2.25,1.471-8,9.156-7.844c2.428,0.094,2.262-1.031,3.324-1.947c1.063-0.917,4.75-4.271,10.499-3.959
		c3.188,0.291,4.709,1.188,4.74,2.095c0.029,0.905,0.391,1.233,0.857,1.766c0.469,0.532,1.031,1.75,0.078,1.563
		c-0.953-0.187-4.154-0.797-7.323,2.017c-3.166,2.813-4.238,9.656,1.638,12.344c5.875,2.688,9.188,2.75,12.594,1.656
		s8.25-3.281,9.313-8.75c0.219-1.125,0.516-1.094,0.891-1.094S396.472,459.049,396.472,459.049z"/>
	<path fill="#DEA567" d="M378.429,454.57c1.313,0,1.641,0,2.328,0.608c0.688,0.609,4.881,3.203,9.465,3.412
		c1.145,0.041,2.02-0.188,0.625,1.707c-1.396,1.896-5.396,3.855-10.064,3.876c-4.666,0.021-6.459-1.563-6.459-3.625
		c0-2.062,2.668-2.938,4.189-2.917c1.52,0.021,1.938,0.479,1.938,1.417c0,0.938-1.75,1.958-1.771,2.417
		c-0.021,0.458,0.104,0.916,1.188,0.813c1.084-0.104,2.396-1.834,2.418-3.104s-0.994-3.15-3.934-3.229
		c-2.938-0.078-5.859,1.813-5.9,4.396s2.666,5.832,8,5.791s7.166-1.375,8.166-1.938c1-0.563,1.375-0.313,0.096,0.719
		c-1.281,1.032-7.471,5.563-15.189,1.219c-7.718-4.344-3.02-9.469-1.072-10.438c1.947-0.97,3.322-1.017,4.025-1.017
		S378.429,454.57,378.429,454.57z"/>
</g>
<g id="雲3_1_" opacity="0.4">
	<path fill="#DEA567" d="M577.208,346.457c0.455,0.938,0.471,1.047-0.279,1.547s-2.518,1.923-3.375,3.375
		c-0.859,1.453-0.406,0.017-0.689-1.297c-0.281-1.313-2.479-5.594-8.375-5.344c-5.895,0.25-9.25,3.563-9.219,6.75
		s2.313,5.469,5.344,5.5s5.719-3.188,3.078-3.141c-2.641,0.047-2.766-3.15-0.162-3.15c2.605,0,7.834,0.771,7.75,4.771
		c-0.082,3.999-5.479,5.854-8.936,5.896c-3.459,0.042-6.668-0.667-7.271-0.896c-0.604-0.229-1.396-0.416-2.271-0.396
		s-11.271-0.709-11.479-7.875c-0.209-7.167,6.791-7.271,7.957-7.47c1.168-0.197,2.041-0.197,3.125-1.447s4.77-3.917,11.303-3.823
		C570.239,339.553,575.679,343.302,577.208,346.457z"/>
	<path fill="#DEA567" d="M564.095,346.427c5.111-0.355,6.459,2.165,6.793,3.688c0.332,1.521-0.064,0.813-0.959,0.167
		c-0.896-0.646-3.814-1.646-6.564-1.292s-3.334,2.563-3.25,3.5s0.521,1.813,1.166,2.25c0.646,0.438,0.584,0.583-0.832,0.5
		c-1.418-0.083-3.459-0.979-3.5-3.625C556.905,348.968,559.905,346.717,564.095,346.427z"/>
	<path fill="#DEA567" d="M582.573,348.072c2.373-0.092,4.207,0.332,5.041,0.916s1.418,0.584,2.293,0.584s4.896-0.615,9.771,3.104
		c4.875,3.719,4.688,6.084,4.5,7.375c-0.189,1.29-2.334,4.29-3.459,4.875c-1.125,0.584-1.041,1.188-1.563,1.709
		c-0.521,0.521-9.543,7.354-19.043,1.729c-1.688-1-1.516-1.328-3.063,0.297s-4.406,4.453-10,4.203s-8.969-2.625-10.406-4.156
		c-1.438-1.53-4.438-4.5-8.719-4.344s-6.406,2.219-7,3.406c-0.594,1.187-1.188,1.656-2.125,2.188
		c-0.938,0.532-10.688,5.531-18.563,1.25c-7.875-4.28-7.781-6-11.406-6.28c-3.625-0.281-6.156,3.53-10.531,3.53
		s-5.531-1.344-8.188-5.125c-1.281-1.938-2.219-1.28-4.031-2.688s0.813-1.531,2.469-1.5s3.688,0.313,6.313,2.844
		s4.094,2.563,5.469,2.563s2.846-1.188,4.189-2.5c1.344-1.313,4.25-3.345,6.094-3.375c1.125-0.021,0.984-0.119,1.078,1.822
		c0.094,1.942,1.922,4.448,4.463,5.637c2.541,1.188,8.084,4.375,13.355,2.854c5.27-1.521,8.27-2.375,8.229-7.959
		c-0.041-5.582-5.584-6.541-7.375-6.541c-1.793,0-6.418,0.791-6.418,3.875s5.105,5.338,5.459,3.002
		c0.084-0.668-1.02-0.377-1.084-1.377c-0.063-1,1.521-1.625,3.125-1.688c1.605-0.063,4.752,0.229,4.752,3.479
		s-5.043,6.709-10.584,5.709c-5.543-1-12-3.416-12.25-7.541s2.041-5.875,3.207-6.125c1.168-0.25,1.875-1.084,2.334-1.709
		s4.707-4.75,10.75-4.666c6.043,0.082,7.625,1.229,8.605,1.688c1.354,0.743,1.432,0.76,1.273,1.821
		c-0.156,1.063-0.516,5.845,3.547,8.095c4.064,2.25,7.824,2.792,9.615,2.792s1.689,0.187,2.896,0.646
		c1.209,0.459,13.146,2.125,16.521-3.875c0.5-0.844,0.688-1.109,1.047-0.344c0.359,0.765,4.785,7.803,12.453,5.761
		c1.75-0.521,1.766-1.073,2.75-1.261c0.984-0.188,4.078-1.75,4.109-4.984c0.029-3.233-3.84-5.63-6.297-5.649
		c-2.459-0.021-6.168,2.166-6.189,4.583c-0.02,2.417,1.834,3.124,3.125,3.021c1.293-0.103,1.314-2.104,2.814-2.188
		s2.27,0.563,2.291,1.667c0.021,1.104-0.729,3.06-4.188,3.29c-3.459,0.229-9.752-1.812-9.668-7.521S580.407,348.155,582.573,348.072
		z"/>
	<path fill="#DEA567" d="M586.054,353.864c1.959,0.084,4.625,1.729,4.688,3.813s-1,2.771-0.938,1.563
		c0.061-1.208-0.939-3.375-3.439-3.459c-2.5-0.082-2.854,1.979-3.813,1.979s-1.916-1.251,0-2.604
		C584.47,353.802,586.054,353.864,586.054,353.864z"/>
	<path fill="#DEA567" d="M599.897,369.552c3.057,0.169,9.844,0.969,10.156,5.469c0.311,4.5-3.375,6.406-5.439,7.5
		c-2.063,1.094-11.916,5.553-21.375,0.636c-1.895-0.979-2.291-0.979-4.084-0.708c-1.791,0.27-8.01,0.135-10.104-3.584
		s-0.291-4.292,1.25-4.563c2.188-0.415,6.021-1.813,7.041-3.29c1.021-1.479,2.043-0.877,2.73-0.355
		c0.688,0.521,3.416,1.313,5.582,1.48c2.166,0.165,2.25-0.104,1.834,1.063c-0.418,1.166-1.594,8.822,7.531,8.541
		s8.469-5.688,8.5-6.063s-0.375-3.313-2.5-3.25c-2.125,0.063-1.656,1.563-1.625,2.094s-0.344,2.219-3.25,2.188
		s-4.344-3.375-1.125-5.313C598.239,369.457,598.214,369.458,599.897,369.552z"/>
	<path fill="#DEA567" d="M590.897,371.957c0.902-0.261,1.063-0.125,0.375,1.595c-0.689,1.719,1.313,4.844,4.063,4.875
		c2.75,0.03,4.75-0.625,5.375-2.563s0.969-0.719,0.969-0.094s-0.688,4.469-6.188,4.5c-5.5,0.03-6.656-2.625-6.719-4.438
		C588.708,374.019,589.272,372.427,590.897,371.957z"/>
	<path fill="#DEA567" d="M564.78,374.197c2.045,0.057,1.875,0.332,1.834,1.416s0.625,1.792-1.834,2.084
		c-2.457,0.291-7.791,0.416-10.166-4c-2.375-4.418-5.791-6.626-8.416-6.543c-2.625,0.084-3.76,0.75-1.338-0.666
		c2.42-1.416,6.838-0.459,9.088,2.125S560.28,374.072,564.78,374.197z"/>
</g>
<g id="雲4_1_" opacity="0.4">
	<path fill="#DEA567" d="M586.816,69.325c2.188-0.063,2.438,0.063,1.313,0.813s-8.063,5.469-2.469,11.844s18.938,6.719,19.031-1.906
		c-0.031-3.938-4.439-4.969-6.846-4.969c-2.404,0-4.719,1.625-4.625,3.281c0.096,1.655,0.439,3.094,3.721,3.03
		c3.279-0.063,2.313-2,1.404-2c-0.906,0-0.938,0.656-1.844,0.625c-0.906-0.03-1.563-0.655-1.531-1.313
		c0.033-0.657,0.814-1.969,3.064-1.969s4.813,1.219,4.875,3.28c0.061,2.063-1.439,5.188-6.469,5.095
		c-5.031-0.095-11.221-3.188-11.189-8.313s8.656-7.219,13.469-7.063c4.814,0.155,11.439,2.28,13.625,3.438
		c1.281,0.719,1.078,0.656,2.484,0.75s7.578,0.063,7.859,6.688s-6.906,9-10.094,10.03c-3.188,1.031-9.656,1.75-12.781,0.47
		c-1.688-0.5-1.672-0.47-2.891,0.547c-1.219,1.016-4.703,3.483-10.266,3.547c-5.564,0.063-9.875-2.031-10.719-2.5
		c-0.846-0.469-1-0.438-0.439-1.406c0.563-0.968,2.555-3.73-0.332-9.053c-1.012-1.791-1.207-1.729,0-1.916
		c1.207-0.188,9.082-1.719,8.863-9.813c-0.072-1.364-0.072-1.206,0.928-1.232C585.959,69.283,586.816,69.325,586.816,69.325z"/>
	<path fill="#DEA567" d="M557.691,51.637c5.92,1.93,8.813,5.313,9.688,7.063s0.938,1.688,2.188,1.688s9.064,0.083,11.979,6.75
		s-2.209,10.375-6.334,11.25c-2.541,0.5-2.916,0.125-4.5-1.167c-1.582-1.292-5.248-2.375-8.166-2.375
		c-1.334,0.083-1.25-0.083-0.916-1.125c0.332-1.042-0.043-1.792,1.082-2.833s2.459-4.25,0.043-7.083
		c-2.418-2.833-7.781-4.698-11.75-3.042c-3.969,1.655-5.625,3.813-5.563,6.844c0.061,3.031,2.188,5.438,5.094,5.375
		c2.906-0.063,4.094-2.125,4.094-3s-0.969-1.094-1.469-0.844s-3.064,1.25-3.031-1.188c0.031-1.906,1.094-2.438,2.813-2.469
		s3.313,0.313,5.094,1.406c1.781,1.093,2.406,2.188,2.406,4.188s-2.594,5.375-8.656,5.625s-7.625-0.344-8.813-1.094
		s-1.531-0.656-2.531-0.625s-10.813-0.427-11.271-8.219s5.834-11.458,11.293-10.875c1.625,0.167,2.416-0.5,2.916-1.208
		S549.252,48.887,557.691,51.637z"/>
	<path fill="#DEA567" d="M555.773,61.846c3.188,0.384,6.896,3.625,6.563,5.958s-0.5,0.875-1.041,0
		c-0.543-0.875-2.209-3.167-5.875-3.75c-3.668-0.583-6.584,0.083-6.875,2.5c-0.146,1.188-0.084,3.021,1.666,3.792
		c1.75,0.771,0.25,0.771-0.375,0.667c-0.625-0.104-2.604-0.792-2.625-3.292c-0.02-2.5,1.021-3.625,2.48-4.563
		C551.148,62.22,552.834,61.492,555.773,61.846z"/>
	<path fill="#DEA567" d="M562.035,76.512c2.59,0.129,9.512,1.25,12.053,7.458c1.082,2.667,1.832,5.666-2.354,8.708
		c-1.855,1.428-2.73,1.001-3.709,1.063c-0.979,0.063-1.146,0.167-2.521,1.375s-5.813,4.958-15.125,3.239
		c-5.031-0.813-7.313-1.636-7.563-2.24c-0.25-0.604-0.916-0.916-1.521-0.938c-0.604-0.021-0.625-0.271-1.293-1.082
		c-0.666-0.813-1.479-2.5-1.457-4.75s2.063-5.542,6.791-5.271c4.729,0.271,7.947,1.844,7.963,3.892
		c0.018,2.047-1.688,2.422-2.797,2.358c-1.109-0.063-1.203-2.563-2.688-1.25c-1.484,1.313-1.703,3.031-0.141,4.219
		c1.563,1.188,5.16,2.092,7.766-0.45c2.604-2.541,5.313-6.8,0.469-10.925c-2.697-2.113-9.447-2.135-13.072-0.802
		c-1.256,0.521-1.193,0.614-1.068-0.4c0.125-1.016-0.547-2.345-0.982-3.031c-0.438-0.688-0.344-1.328,1.188-0.797
		c1.531,0.53,3.328,1.655,7.984,1.78s5.844-0.813,7.078-1.391C558.268,76.699,560.867,76.454,562.035,76.512z"/>
	<path fill="#DEA567" d="M549.17,81.742c2.75-0.021,7.43,1.042,7.568,4.938c0.139,3.896-3.234,6.771-6.006,6.687
		c-0.887-0.041-1.496-0.274-1.793-0.588c-0.297-0.313-0.328-0.813,0.188-0.625c0.516,0.188,0.641,0.281,1.453,0.297
		c0.813,0.017,4.523-0.895,4.381-5.042c-0.166-3.25-6.563-4.854-9.416-4.604c-1.688,0.104-2.059-0.137-0.34-0.637
		S549.17,81.742,549.17,81.742z"/>
	<path fill="#DEA567" d="M519.502,63.096c2.27-0.648,5.25-1.208,6.875-0.75s1.375,0.625,1.125,1.917s-0.531,4.875,2.064,7.938
		c1.094,1.375,1.219,1.406,0,1.719c-1.221,0.313-5.221,2.031-5.031,5.5c0.188,3.47,3.26,4.906,5.781,4.803
		c2.52-0.104,3.436-1.688,3.104-2.396c-0.334-0.708-1.25-0.646-2.168-0.083c-0.916,0.563-2.416-0.667-2.332-2.125
		c0.082-1.458,1.313-2.479,3.125-2.375c1.813,0.104,6.082,1.792,6.166,4.5s-4.928,6.364-9.49,6.458
		c-4.561,0.094-8.094-1.656-9.219-2.313c-1.125-0.657-1.719-0.813-2.75-0.75c-1.031,0.063-6.063-0.906-8.219-3.031
		s-5.688-5.375-0.219-9.719c2.844-1.97,4.254-2.345,4.564-3.688C513.191,67.356,514.545,64.512,519.502,63.096z"/>
	<path fill="#DEA567" d="M537.816,77.387c0.592,0.854,0.594,1.594-0.406,0.594s-1.939-1.781-3.375-2
		c-1.438-0.219-7.25-0.156-7.064,2.969c0.074,1.458,0.971,2.771,2.031,3.417c1.063,0.646-0.041,0.563-0.854,0.167
		c-0.813-0.396-2.625-1.698-1.979-3.933s1.791-2.963,3.5-3.192c1.707-0.229,3.125-0.458,3.791-0.563s1.75,0.041,2.5,0.708
		S537.441,76.846,537.816,77.387z"/>
	<path fill="#DEA567" d="M535.252,87.846c2.023-1.504,2.334-1.875,1.709,1.5s1.584,5.667,2.25,6.25c0.666,0.582,0.834,0.625,0,1.25
		s-5.334,3.239-9.834,1.953c-4.5-1.287-6.332-6.078-13.125-6.203c-6.791-0.125-4.25,5.131-17.625,6.555s-11-4.451-23.75-7.014
		c-7.291-1.292-6.207,4.458-12.041,4.666c-5.834,0.209-2.459-1.583-8.459-2.5c-2-0.375-1.416-1.666,0-2.25
		c1.418-0.583,1.896-0.521,4.043,0.875s3.604,1.396,4.521,1.396c0.916,0,2.313,0.188,4.645-1.979
		c2.334-2.167,3.916-3.958,7.209-3.917c3.291,0.042,6.553,1.396,10.49,4.427c3.936,3.031,8.656,3.375,9.844,3.344
		s9.219-0.469,9.438-5.531c0.219-5.062-6.906-2.155-6.844-6.094c0.063-3.938,4.688-4.313,5.531-4.438
		c0.842-0.125,0.969-0.25,1.656,0.78c0.686,1.031,4.531,5,10.281,5.72c2.125,0.28,2.125,0.229,4.082,1.271
		C521.232,88.95,529.846,91.867,535.252,87.846z"/>
	<path fill="#DEA567" d="M587.441,96.95c1.875,0,2-0.063,2,1.563s-0.75,9-8.939,9.687c-4.281,0.375-5.75-0.25-8.156,1.594
		c-2.404,1.845-1.875,4.5-1.688,5.345c0.188,0.844,1.875,6.188-5.75,9.219c-4,1.563-5.75,1.25-6.781,1.281
		c-1.031,0.03-1.438,0.125-2.25,0.563c-0.811,0.438-4.75,3.219-11.5,2.406c-6.75-0.813-9.406-3.219-13.906-5.063
		c-4.5-1.844-8.154,0.97-12.438,2.25c-4.281,1.281-9.75,1.688-12.219-0.813s-0.021-2.801,1.979-2.51s5.166,2.125,8.5,1.709
		c4.709-0.605,4.115-4.949,11.74-4.699s8.313,1.5,10.375,2.125c2.061,0.625,12.313,3.156,16.531-1.156
		c4.217-4.312,3.25-7.719-0.406-9.469s-5.219-1.031-13.219-0.375c-5.971,0.313-9.25-2.656-10.939-4.281
		c-1.688-1.625-0.688-3.656,0-4.5c0.689-0.844,1.406-1,2.406-1c1.969,0,6.031-1.281,7.344-2.344
		c1.064-0.781,1.719-0.781,2.814-0.219c1.094,0.562,6.188,2.709,12.688,2.292s10.791-3.459,11.457-4.292
		c0.668-0.833,1.564-0.688,2.271-0.688c0.709,0,2.771-0.75,3.438-1.334c0.668-0.582,1.146-0.604,2.334,0
		C576.316,94.846,581.221,96.95,587.441,96.95z"/>
</g>
<g id="雲6_1_" opacity="0.4">
	<path fill="#DEA567" d="M394.076,139.914c2.936,0.077,10.75,2,15.406,6c2.029,2,2.029,1.75,4.344,2.28
		c2.313,0.531,8,3.822,7.832,7.656c-0.166,3.834-2.375,6.084-8.707,8.5c-6.334,2.416-8.156,6.844-8.064,8.313
		c0.094,1.469,0.346,1.563-1.438,2.375c-1.781,0.812-8.281,3.28-14.375,0.188c-1.563-0.75-1.406-0.844-1.375-2.281
		c0.063-0.75,0.088-1.563-0.02-2.344c-0.105-0.781-0.262-1.188,0.988-1.188s5.344-0.22,8.031-1.595s5.5-4.405,6.969-7.688
		s-0.551-10.613-9.094-11.26c-8.541-0.647-11.281,3.604-11.719,5.446c-0.438,1.844-0.053,4.429,2.24,5.72
		c2.291,1.293,3.938,2.125,6.104,2.188c2.166,0.063,4.688-1.646,3.209-3.563c-1.1-1.5-1.74-1.47-2.084-1.173
		c-0.342,0.298-0.5,0.625-0.125,1.063c0.375,0.438,0.734,0.484,0.734,0.922c0,0.438-0.078,0.969-1.5,0.953s-2.734-0.219-3.391-1.094
		c-0.658-0.875-1.984-5.828,4.953-5.859c6.109-0.031,8.047,4,8.047,5.594c0,1.595-0.762,7.304-10.303,8.406
		c-3.604,0.313-3.396,0.188-4.75-1.207s-5.25-6.002-16.791-5.543c-1.709,0.104-2,0.229-2.834-1.084
		c-0.832-1.313-4.832-9.832,8.459-13.25c1.916-0.457,2.5-0.75,3.457-1.666C379.24,143.809,383.389,139.631,394.076,139.914z"/>
	<path fill="#DEA567" d="M393.545,150.35c3.094,0,3.844,0.5,5.5,1.281s2.344,1.688,3.125,2.938s1.031,3.781,0.375,2.095
		c-0.656-1.688-1.438-2.22-2.625-3.063s-3.594-1.75-5.281-1.875s-5.063,0.156-6.813,1.625s-2.094,1.875-2.125,3.031
		s-0.219,2.219-0.844,0.625s-0.346-3.281,1.594-4.625C388.389,151.038,391.389,150.35,393.545,150.35z"/>
	<path fill="#DEA567" d="M420.826,164.914c3,0.008,6.457,1.104,7.75,1.896c1.291,0.791,1.75,0.832,3.041,0.916
		c1.293,0.084,10.125,0.293,10.707,8.459c0.584,8.166-7.457,9.377-10.748,9.461c-1.793,0-2,0.213-2.959,1.422
		c-0.957,1.209-5.832,6.367-16.916,6.283s-15.084-3.041-16.043-3.832c-0.957-0.793-1.082-0.877-2.5-1.168
		c-1.416-0.291-8.332-1.082-10.457-6.832c-0.459-1.625-0.418-1.418,0.332-1.959c0.418-0.291,2.979-2.24,3.293-2.99
		c0.313-0.75,1.313-0.28,1.906,0.031c0.592,0.313,3.594,1.813,8.938,1.938c2.813,0.063,3.75-0.313,4.25-0.563s0.719-0.75,1.5,0.719
		c0.781,1.47,4.072,6.447,12.572,6.197s11.793-6.375,11.75-9c-0.041-2.625-1.625-5.125-6.832-5.125c-5.209,0-4.25,4.418-2.084,4.418
		c0.375,0.01,0.5-0.146,0.5-0.459c0-0.313-0.469-0.219-0.438-1.219s0.719-1.125,1.594-1.125s3.25,0.531,3.188,3.125
		c-0.061,2.594-3.531,4.344-7.531,4.219s-8.594-2.313-8.719-6.094S411.992,164.893,420.826,164.914z"/>
	<path fill="#DEA567" d="M404.91,176.393c0.205-0.172,0.625-0.252,1.416,0.707c0.793,0.959,2.543,4.043,9.25,4.168
		c6.709,0.125,9.25-4.418,9.25-5.512s-0.219-1.469-0.406-1.75c-0.186-0.281-0.25-1.313,0.564-0.344
		c0.375,0.53,0.594,1.28,0.594,2.03c0.063,1.625-2.23,7.394-10.094,7.47C407.619,183.238,402.898,178.059,404.91,176.393z"/>
	<path fill="#DEA567" d="M372.389,162.414c5.25,0.067,13.625,2.75,13.688,8.875s-5.438,8-10.375,8.125s-7.313-2.375-7.125-5.063
		c0.188-2.688,2.688-3.432,4.313-3.436c1.625-0.002,2.25,0.623,2.281,1.403c0.031,0.781-0.5,1.438-1.156,1.5
		c-0.654,0.063-1.029,0.345-1,0.781c0.031,0.438,0.096,1.063,1.346,1c1.25-0.063,5.75-1.031,5.563-5.063
		c-0.156-2.281-3.781-5.22-7.688-5.156c-3.908,0.063-10.24,4.055-10.074,9.43s5.75,10.205,12.209,9.914
		c3.426-0.125,5.52-0.875,6.051-1.094s0.781-0.531,1.689,0.563c0.906,1.095,3.25,3.375,4.25,3.781s0.75,0.5,0,0.938
		c-0.75,0.438-5.594,2.771-11.771,2.438s-11.164-2.719-12.432-3.875s-1.018-1.25-2.705-1.469s-14.875-1.969-14.875-9.656
		c0-7.687,9.584-8.541,12.5-8.541c1.25,0.041,1.334-0.084,1.918-0.793C359.576,166.309,363.961,162.305,372.389,162.414z"/>
	<path fill="#DEA567" d="M372.982,167.164c2.529-0.021,5.219,2,5.279,3.563c0.063,1.563-1.25,3.219-1.375,1.5
		s-2.219-2.906-4.344-2.906s-5.844,1.47-5.719,5.22s4.156,6.75,10.219,6.655c2.031-0.03,3.189-1.155,3.625-0.313
		c0.189,0.5-1.031,2.219-5.969,2.156c-4.938-0.063-10.781-2.654-10.875-7.937C363.732,169.819,369.482,167.194,372.982,167.164z"/>
	<path fill="#DEA567" d="M372.256,193.1c0.992,0.176,1.256,0,0.695,1.25c-0.563,1.25-1.064,2.563-1,3.875
		c0.063,1.313,1.5,3.5,2.375,3.938c0.875,0.438,1.188,0.813,0.875,1.938c-0.314,1.125-4.125,8.125-18.314,8.313
		c-12.688,0-15.938-3.938-17.25-4.813c-1.311-0.875-1.688-1.125-3.125-1.125c-1.436,0-15.312-0.438-15.25-10.563
		c0.188-7.25,7.314-7.938,8.689-7.938s1.625,0.063,2.375-1c2.25-3.938,9.813-4.125,11.188-4.25s2,0.375,3,1.125
		c3.875,2.75,10.438,3.875,11.813,3.938c1.375,0.063,1.75,0.188,2.688,0.938c0.939,0.75,3.941,2.314,4.783,2.658
		c0.842,0.342,2.031,2.029,1.967,3.654c-0.063,1.625-1.188,6.125-8.438,5.75s-7.344-3.531-7.344-4.188s0.813-2.375,3.25-2.219
		s2.469,1.094,2.656,1.594s0.563,0.531,1,0.406s0.625-0.469,0.438-1.031c-0.188-0.562-1.438-2.594-4-2.594s-3.188,0.531-4.5,1.406
		s-3.063,1.875-2.969,4.405c0.094,2.531,3.313,7.25,11.063,6.906c5.75-0.219,7-3.281,7.281-3.969
		c0.281-0.688,0.281-0.844,0.844-1.281c0.564-0.437,2.344-2.375,2.344-4.25c0-0.938-0.063-2.188-0.25-2.656
		C368.953,192.85,368.623,192.46,372.256,193.1z"/>
	<path fill="#DEA567" d="M353.971,201.391c1.121,0.49,4.48,1.189,8.271,0.543c1.354-0.063,2.043-0.104,0.938,0.563
		c-1.104,0.667-2.666,1.332-4.604,1.395c-1.938,0.063-6.291-0.916-7.979-3.082c-1.688-2.168-1.063-2.875-0.854-3.25
		c0.207-0.375,0.395-0.668,0.854,0.646C351.055,199.518,352.826,200.891,353.971,201.391z"/>
	<path fill="#DEA567" d="M468.908,200.725c4.834-0.043,22.979,1.938,22.979,16.375c-0.104,7.5-8.813,7.877-10.938,7.834
		c-2.125-0.041-9.541-1-9.375-5.541c0.168-4.543,4.334-4.875,5.709-4.875s5.666,0,5.666,2.166s-1.52,2.418-2.551,2.5
		c-1.031,0.084-1.678-0.063-2.199-0.666c-0.52-0.604-1.02-0.896-1.395-0.646s-0.668,0.604-0.105,1.209
		c0.563,0.604,1.742,1.77,3.701,1.754c1.957-0.017,4.348-1.828,4.314-3.72c-0.078-3.598-4.348-4.282-6.992-4.284
		c-2.648,0-7.43,0.379-7.789,5.112c-0.938-1.358-5.15-6.719-14.109-6.76c-3.604,0.146-3.811,0.666-5.916,0.396
		c-2.104-0.271-9.77,1.313-9.77,7.229s7.279,8.76,10.904,8.635s4.906-1.938,5.188-2.953c0.281-1.015,0.344-1.155,0.672-1.702
		c0.156-0.281,0.328-0.828,0.328-1.673c0-0.844-1.281-2.938-3.172-2.983c-0.969-0.017-1.172,0.203-1.188,0.625
		s-0.078,0.953,0.922,1.031c1,0.077,1.797,0.78,1.813,1.313s-0.859,2.266-3.75,2.141s-4.969-1.868-5.051-4.034
		c-0.084-2.166,1.959-6.479,9.354-6.209c7.396,0.271,12.771,4.5,12.916,8.146c0.146,3.646-5.082,12.041-20.166,12
		c-5.416,0-12.916-1.834-14.875-2.834s-2.5-1.291-3.207-2.082c-0.709-0.793-1.084-1.063-2.293-0.543
		c-1.207,0.521-2.301,0.572-4.207,0.604c-1.906,0.031-7.469-1.906-7.531-5.906s4.438-6.188,5.344-6.625
		c0.906-0.438,1.188-0.5,2.531-0.219c1.344,0.28,3.313,0.375,3.906,0.094c0.592-0.281,0.875-0.375,1.656-0.313
		c0.781,0.063,5.906-0.25,5.813-5.03c-0.094-4.781-5.906-5.72-7.125-5.688s-2.072,0.23-2.697,0.5
		c-0.625,0.271-1.459,0.084-2.105,0.043c-0.645-0.043-1.02-0.084-3.02,0.521s-15.355,2.771-19.23,2.688
		c-3.875-0.082-9.197-1.156-9.916-4.75c-0.219-1.25-0.594-2.25-2.564-1.031c-1.969,1.22-5.688,2.99-10.375,1.22
		c-0.719-0.203-1.047-0.267-1.078-1c0-0.188-0.125-0.609-0.451-0.906c-0.328-0.297-0.609-0.422-0.953-0.438
		c-0.346-0.016-0.438,0.063-1.211-0.469s-1.586-1.613-1.648-3.416s1.063-3.146,1.375-3.646s0.719-0.656,2.219-0.72
		c1.5-0.063,8.031-0.75,10.813-2.844c0.594-0.5,0.969-1,2.281-0.75s3.281,0.219,4.531,1.5s8.813,4.75,18.844,3.969
		c10.031-0.78,14.428-4.594,15.594-6.178c1.168-1.582,1.738-1.375,3.453-1.541s3.674-0.541,4.506-0.916
		c0.834-0.375,1.125-0.625,1.668,0c0.541,0.625,1.166,2.207-1.875,3.082c-3.043,0.875-8.834,3.043-8.459,6.959
		s3.459,6.709,8.314,6.584c4.854-0.125,7.188-2.418,12.313-2.293c3.125,0.043,6.438,0.793,7.5,1.418s1.729,0.646,3.77-0.168
		C462.555,201.205,465.43,200.756,468.908,200.725z"/>
	<path fill="#DEA567" d="M430.201,196.506c0-1.219,0.719-2.438,3.156-3.875c-0.221,0.688-0.439,1.281-0.439,1.656
		s-0.125,5.75,7.219,6.594c-2.219,0.25-5.279,1.25-7.75-0.563C429.918,198.505,430.201,196.506,430.201,196.506z"/>
	<path fill="#DEA567" d="M431.295,213.256c-0.906-0.033-1.781-0.094-2.219-0.375c0.375-0.438,1.719-2.719,1.781-3.906
		c0.061-1.187-0.625-2.156-0.875-2.563c0.469,0,1.313,0.063,2.219,1c0.906,0.937,1.719,2.813,1.719,4
		C433.92,212.599,432.322,213.294,431.295,213.256z"/>
	<path fill="#DEA567" d="M428.514,210.6c0.066-1.154-0.781-4.094-3.281-4.5c0.281,1.063,0.344,1.406,0.281,2.625
		s-0.313,3-1.688,4.281s0.844,1.094,1.656,1.125C426.293,214.163,428.357,213.319,428.514,210.6z"/>
	<path fill="#DEA567" d="M497.91,216.1c3.25-0.078,12.084,0.625,12.166,7.918c0.084,7.291-6.457,10.746-17.957,10.746
		c-4.105-0.102-7.23-0.789-8.355-1.352c-1.125-0.563-2-0.541-2.813-0.271c-0.814,0.271-8.25,1.791-12.834-3.875
		c-0.75-0.791-0.25-1.168,0.291-1.75c0.541-0.584,2.043-2.584,2.125-4.75c1,1.041,4.5,3.957,11.418,3.875
		c2.729-0.041,4.709-0.709,4.938-0.813c0.355,0.375,2.605,3.854,9.125,3.938c4.875-0.012,7.094-4.012,7-6.168
		s-2.156-4.594-4.313-4.594c-2.158,0-3.314,1.438-3.219,2.375c0.094,0.937,0.844,1.875,2.313,1.906
		c0.75,0.03,0.938-0.031,0.938,0.469s-0.406,1.531-2.969,1.5s-3.719-1.375-4.188-1.938c0.375-0.656,1.063-1.438,1.531-2.938
		c0.467-1.5,0.563-2.75,0.375-3.656C494.201,216.506,495.336,216.164,497.91,216.1z"/>
	<path fill="#DEA567" d="M495.668,226.914c1.189-0.021,4.439-0.563,4.939-2.125c0.5-1.563-0.156-1.938-0.75-2.438
		c-0.596-0.5-0.971-0.563-1.221-0.469s-1.729,0.375-0.408-0.563c1.314-0.938,3.314,0.688,3.379,2
		c0.063,1.313-0.156,4.906-6.564,4.875c-2.5-0.094-5.094-1.405-5.969-2.25c-0.875-0.844-0.688-0.688,0-1.063s0.969-0.781,1.719,0
		S492.293,226.975,495.668,226.914z"/>
	<path fill="#DEA567" d="M479.076,235.414c2.188,0.016,5.688-1.875,5.563,1.313c-0.125,3.188-5,5.75-9.125,5.75
		s-4.75-0.5-5.563-0.938c-0.814-0.438-2-0.25-2.814,0.063c-0.813,0.313-4.438,1.25-7.813,0.438
		c-3.375-0.813-5.125-1.875-10.188-1.688c-5.063,0.188-4.375-0.75-7.748-0.75c-3.375,0-6.939,1.688-7,4.813
		c-0.063,3.125,2.104,5.227,5.02,5.561c2.916,0.332,3.166,0.748,5.709,0.832c2.541,0.084,7.125-1.834,10.832-1.75
		c11.5,0.67,11.168,5.42,17.668,5.629s9.75-3.5,15.916-3.625c1.072-0.053,1.834-0.02,2.625,0.188
		c-1.479,0.813-2.791,1.271-3.959,2.104c-1.166,0.834-8.082,6.541-15.291,6.459c-7.209-0.084-5.125-4.707-15.209-5.041
		c-10.082-0.334-13.752,5.146-23.314,3.957c-9.561-1.188-11.061-6.5-11.436-7.813c-0.375-1.313-1-1.313-2.188-1.375
		c-1.188-0.063-12-1-11.75-7.938c0.25-6.938,10.75-9.875,13.625-9.813c2.875,0.062,2.563-0.25,3.5-0.813
		c0.938-0.563,2.063-2.063,4.688-0.313s9.375,4.014,17.5,4.102c8.125,0.086,15.459-2.748,16.75-4.08
		c1.293-1.334,1.375-0.709,2.125,0S470.574,235.35,479.076,235.414z"/>
	<path fill="#DEA567" d="M444.992,219.018c0.074,1.998,1.832,5.5,7.125,5.75c1.207,0.082,2.125,0.582-0.25,0.832
		s-10-1.291-9.916-5.875c0.084-4.582,3.814-5.834,5.699-6C446.449,214.975,444.908,216.809,444.992,219.018z"/>
	<path fill="#DEA567" d="M436.242,244.475c0.188-1.748,2.125-3.084,5.25-3.166c-1.541,1.666-3.625,3.084-1.541,6.666
		C438.701,247.975,435.852,248.108,436.242,244.475z"/>
	<path fill="#DEA567" d="M440.867,245.643c0.018-2.049,1.668-3.459,3.918-3.584c-1.375,3.5-1.625,4.168,0.666,6.834
		C443.949,249.143,440.836,249.36,440.867,245.643z"/>
</g>
</svg>
